<?xml version="1.0" encoding="utf-8"?><!-- Uploaded to: SVG Repo, www.svgrepo.com, Generator: SVG Repo Mixer Tools -->
<svg width="800px" height="800px" viewBox="0 0 128 128" xmlns="http://www.w3.org/2000/svg" xmlns:xlink="http://www.w3.org/1999/xlink" aria-hidden="true" role="img" class="iconify iconify--noto" preserveAspectRatio="xMidYMid meet"><path d="M116.62 124.26H11.32c-4.15 0-7.52-3.37-7.52-7.52V11.44c0-4.15 3.37-7.52 7.52-7.52h105.3c4.15 0 7.52 3.37 7.52 7.52v105.3c.01 4.15-3.36 7.52-7.52 7.52z" fill="#aed0d7"></path><path d="M116.62 124.26H11.32c-4.15 0-7.52-3.37-7.52-7.52V11.44c0-4.15 3.37-7.52 7.52-7.52h105.3c4.15 0 7.52 3.37 7.52 7.52v105.3c.01 4.15-3.36 7.52-7.52 7.52z" fill="#aed0d7"></path><radialGradient id="IconifyId17ecdb2904d178eab8804" cx="77.845" cy="113.186" r="101.845" gradientTransform="matrix(-.0349 -.9994 1.9051 -.0666 -135.07 198.516)" gradientUnits="userSpaceOnUse"><stop offset=".553" stop-color="#92bdcc"></stop><stop offset=".622" stop-color="#b9d5de"></stop><stop offset=".732" stop-color="#ffffff"></stop></radialGradient><path d="M3.82 46.32l-.07 23.13l120.4-7.31l.16-41.9s-5.59-4.5-14.28-1.86s-10.4 7.91-10.4 7.91s-8.65-2.84-17.69 1.09c-11.8 5.12-16.46 16.13-16.46 16.13s-11.79-4.04-25.14-3.88c-18.89.24-36.52 6.69-36.52 6.69z" fill="url(#IconifyId17ecdb2904d178eab8804)"></path><radialGradient id="IconifyId17ecdb2904d178eab8805" cx="66.473" cy="139.576" r="86.395" fx="63.684" fy="139.807" gradientTransform="matrix(.1098 -.994 1.9081 .2107 -207.15 176.232)" gradientUnits="userSpaceOnUse"><stop offset=".593" stop-color="#a1c3ce"></stop><stop offset=".61" stop-color="#a8c8d2"></stop><stop offset=".708" stop-color="#cee0e5"></stop><stop offset=".799" stop-color="#e9f1f3"></stop><stop offset=".879" stop-color="#f9fbfc"></stop><stop offset=".94" stop-color="#ffffff"></stop></radialGradient><path d="M42.23 59.4s8.03-3.78 18.97-4.23c7-.29 15.32 2.33 15.32 2.33s6.86-3.79 24.37-2.63c17.51 1.17 23.26 4.83 23.26 4.83l.01 39.24L3.78 95.6l.02-36.5s9.99-2.18 22.68-1.75c9.91.35 15.75 2.05 15.75 2.05z" fill="url(#IconifyId17ecdb2904d178eab8805)"></path><path d="M124.17 61.85c-.27-.13-6.63-3.13-10.93-5.94c-3.82-2.49-11.73-8.67-21.46-17.89c-7.92-7.51-14.52-18.57-14.8-19.04l2.06-1.22c.07.11 6.72 11.25 14.39 18.52c9.61 9.11 17.38 15.18 21.12 17.62c4.16 2.71 9.53 5.2 9.59 5.23l.03 2.72z" fill="#b11f2b"></path><path fill="#b11f2b" d="M106.02 99.6l-2-.02l.28-51.19l2 .02z"></path><path fill="#b11f2b" d="M111.644 90.545l.102-52.27l2 .004l-.102 52.27z"></path><path fill="#b11f2b" d="M119.176 78.981l.1-20.36l2 .01l-.1 20.36z"></path><path fill="#b11f2b" d="M32.263 92.536l.367-17.946l2 .041l-.368 17.946z"></path><path fill="#b11f2b" d="M21.384 91.7l.56-27.334l2 .041l-.56 27.335z"></path><path fill="#b11f2b" d="M43.65 98.34l-2-.02l.37-44.91l2 .02z"></path><path fill="#b11f2b" d="M53.78 104.01l-2-.02l.18-39.61l2 .02z"></path><path fill="#b11f2b" d="M61.01 37.55h2v69.59h-2z"></path><path fill="#b11f2b" d="M69.195 51.323l2-.005l.13 49.87l-2 .005z"></path><path d="M124.18 48.83c-.06-.04-6.68-4.94-12.69-10.12c-4.04-3.48-8.67-8.24-11.26-11.2c-4.31-4.92-6.88-8.68-6.99-8.84l1.99-1.35c.03.04 2.6 3.81 6.81 8.61c2.54 2.89 7.07 7.56 11.02 10.96C119 42 124.14 45.76 124.2 45.8l-.02 3.03z" fill="#ff2d26"></path><path d="M78.43 17.02s4.7-.13 4.73-.04c.12.43.18 78.52.18 78.52l-7.91 3.21l3-81.69z" fill="#b01522"></path><path d="M93.41 17.13s4.13-.07 4.21 0c.42.32.28 25.22.28 25.22h.83v55.54l-4.91-5.19l-.41-75.57z" fill="#b01522"></path><path d="M95.86 42.53h-1.39l-.04-25.41l-4.23-.06l-.02 2.78s-1.58 1.59-5.01 1.69c-3.43.09-4.82-2.13-4.82-2.13l-.03-2.4l-5.16.04l-.06 25.49l-.98.06l.05 7.27V92.7l.09 16.68l6.4-4.91l-.09-33.74l9.09-.09v31.16l6.21.28V42.53zM80.29 29c.19-.37 9.74-.09 9.74-.09l-.09 13.63H80.3V29zm9.64 34.21h-9.64V49.86h9.64v13.35z" fill="#ff2d26"></path><path d="M95 17.09s.32-3.23-1.65-3.2c-1.83.02-1.45 3.24-1.45 3.24s.78.02 1.66 0c1-.02 1.44-.04 1.44-.04z" fill="#dd0c29"></path><path d="M79.48 13.84c-1.78.02-1.49 3.22-1.49 3.22s.81-.02 1.58-.02c.76 0 1.49-.04 1.49-.04s.32-3.18-1.58-3.16z" fill="#dd0c29"></path><path d="M3.78 84.4l.03-2.53c.06-.01 8.82-1.45 11.5-2.34c.31-.1.84-.25 1.55-.46c5.79-1.65 23.41-6.67 43.05-20.31c21.63-15.02 31.07-40.17 31.17-40.42l2.25.83c-.09.26-9.78 26.1-32.05 41.57C41.31 74.6 23.4 79.7 17.51 81.37c-.67.19-1.15.33-1.45.43c-2.83.95-12.03 2.55-12.28 2.6z" fill="#ff2d26"></path><path d="M3.76 70.86v-2.35c.17 0 15.7-.17 39.12-16.72c8.67-6.12 20.59-16.75 25.52-22.74c5.64-6.86 5.89-8.53 6.64-10.27c0 0 .31-1.55 1.17-1.74c.21-.05 1.71-.03 1.71-.03c-.16.55-1.8 6.43-7.66 13.56c-5.03 6.12-17.18 16.96-25.98 23.18C20.16 70.79 4.49 70.86 3.76 70.86z" fill="#b11f2b"></path><radialGradient id="IconifyId17ecdb2904d178eab8806" cx="68.785" cy="149.252" r="135.89" gradientTransform="matrix(-.00766 -1 2.0753 -.0159 -240.431 220.408)" gradientUnits="userSpaceOnUse"><stop offset=".131" stop-color="#ffffff"></stop><stop offset=".848" stop-color="#ffffff" stop-opacity="0"></stop></radialGradient><path d="M116.62 124.26H11.32c-4.15 0-7.52-3.37-7.52-7.52V11.44c0-4.15 3.37-7.52 7.52-7.52h105.3c4.15 0 7.52 3.37 7.52 7.52v105.3c.01 4.15-3.36 7.52-7.52 7.52z" fill="url(#IconifyId17ecdb2904d178eab8806)"></path><radialGradient id="IconifyId17ecdb2904d178eab8807" cx="17.72" cy="130.794" r="81.635" gradientTransform="matrix(.164 -.9865 1.3475 .224 -161.436 118.976)" gradientUnits="userSpaceOnUse"><stop offset=".158" stop-color="#c0d0d5"></stop><stop offset=".578" stop-color="#fafbfb"></stop><stop offset="1" stop-color="#fafbfb" stop-opacity="0"></stop></radialGradient><path d="M99.52 124.26h-88.2c-4.15 0-7.52-3.37-7.52-7.52l-.04-40.41s6.22-3.77 16.68-.83c10.46 2.93 16.51 12.1 16.51 12.1s7.03-5.97 18.71-3.12c15.05 3.67 23.49 22.2 23.49 22.2l20.37 17.58z" fill="url(#IconifyId17ecdb2904d178eab8807)"></path><radialGradient id="IconifyId17ecdb2904d178eab8808" cx="70.553" cy="51.231" r="79.852" gradientUnits="userSpaceOnUse"><stop offset=".052" stop-color="#fafbfb" stop-opacity="0"></stop><stop offset=".571" stop-color="#fafbfb"></stop><stop offset=".718" stop-color="#eef2f3"></stop><stop offset=".919" stop-color="#d6e1e3"></stop></radialGradient><path d="M124.15 73.21v43.53c0 4.15-3.37 7.52-7.52 7.52h-83.5s4.13-16.53 20.28-26.29c14.17-8.57 24.27-5.42 24.27-5.42s9.43-16.02 24.04-20.03s22.43.69 22.43.69z" fill="url(#IconifyId17ecdb2904d178eab8808)"></path></svg>